<?xml version="1.0" encoding="UTF-8"?>
<svg xmlns="http://www.w3.org/2000/svg" width="179" height="40" viewBox="0 0 179 40" fill="none">
  <g clip-path="url(#clip0_3535_81693)">
    <path d="M164.401 18.5381C164.401 17.8956 164.491 17.3108 164.671 16.7904C164.851 16.2699 165.172 15.8201 165.627 15.4474C166.083 15.0747 166.712 14.7855 167.515 14.5799C168.311 14.3743 169.332 14.2715 170.571 14.2715C171.701 14.2715 172.613 14.3614 173.306 14.5414C173.999 14.7213 174.539 15.0104 174.918 15.4153C175.296 15.8201 175.553 16.347 175.675 17.0088C175.797 17.6642 175.861 18.4739 175.861 19.4249V28.3823H178.506V19.4249C178.506 18.6345 178.481 17.902 178.423 17.2273C178.365 16.5526 178.256 15.9422 178.083 15.396C177.916 14.8498 177.672 14.3679 177.351 13.9566C177.03 13.5454 176.612 13.1984 176.092 12.9157C175.572 12.6329 174.93 12.4273 174.173 12.2795C173.415 12.1381 172.51 12.0675 171.451 12.0675C170.167 12.0675 169.075 12.1703 168.189 12.3759C167.297 12.5815 166.558 12.8385 165.968 13.1406C165.377 13.4426 164.915 13.7574 164.581 14.0916C164.254 14.4193 164.01 14.7084 163.849 14.959C163.656 14.49 163.4 14.0723 163.072 13.7124C162.745 13.3526 162.321 13.0442 161.807 12.8C161.287 12.5558 160.665 12.3759 159.933 12.2474C159.201 12.1253 158.341 12.061 157.352 12.061C156.363 12.061 155.471 12.1317 154.739 12.2667C154.007 12.4016 153.378 12.5815 152.858 12.7871C152.338 12.9992 151.914 13.2305 151.593 13.4747C151.265 13.7253 151.009 13.9566 150.822 14.1687C150.636 14.3871 150.501 14.5735 150.431 14.7277C150.36 14.8819 150.315 14.9783 150.309 15.004V12.498H147.664V28.3695H150.309V18.5317C150.309 17.8891 150.399 17.3044 150.579 16.7839C150.758 16.2634 151.079 15.8136 151.535 15.441C151.991 15.0683 152.62 14.7791 153.423 14.5735C154.219 14.3679 155.24 14.2651 156.479 14.2651C157.609 14.2651 158.52 14.355 159.214 14.5349C159.907 14.7149 160.446 15.004 160.825 15.4088C161.204 15.8136 161.461 16.3406 161.583 17.0024C161.705 17.6578 161.769 18.4675 161.769 19.4185V28.3759H164.414V18.5381H164.401Z" fill="#7E7E7E"></path>
    <path d="M87.4744 28.4209C88.5979 28.2538 89.5032 27.9775 90.1966 27.6048C90.8835 27.2321 91.3779 26.7438 91.6796 26.1462C91.975 25.5422 92.129 24.8161 92.129 23.9615H89.4839C89.4839 24.4819 89.3876 24.906 89.2014 25.2338C89.0153 25.5615 88.6878 25.8121 88.2192 25.9984C87.7505 26.1783 87.1213 26.3068 86.3252 26.3711C85.5291 26.4354 84.5275 26.4675 83.3141 26.4675C81.9916 26.4675 80.8809 26.4225 79.982 26.3261C79.0832 26.2297 78.3577 26.0113 77.8056 25.6643C77.2535 25.3173 76.8618 24.7647 76.6243 24.0064C76.3867 23.2482 76.2647 22.2779 76.2647 21.0956H91.9043L92.1226 20.2153C92.1226 19.3992 92.0777 18.6217 91.9942 17.8892C91.9043 17.1566 91.7438 16.5141 91.5127 15.9679C91.2816 15.4217 90.9541 14.9012 90.5497 14.4064C90.1388 13.9117 89.6059 13.4876 88.9511 13.1406C88.2962 12.7936 87.5065 12.5237 86.582 12.3438C85.6575 12.1574 84.5725 12.0675 83.3141 12.0675C81.555 12.0675 80.0527 12.2024 78.8264 12.4659C77.5937 12.7293 76.5986 13.1984 75.8282 13.8731C75.0577 14.5414 74.4992 15.4474 74.1461 16.5783C73.7994 17.7157 73.626 19.1486 73.626 20.8836C73.626 22.4 73.7994 23.6595 74.1461 24.6619C74.4928 25.6643 75.0577 26.4611 75.8282 27.0587C76.5986 27.6562 77.6001 28.0739 78.8264 28.3181C80.0591 28.5623 81.555 28.6844 83.3141 28.6844C84.9641 28.6844 86.3573 28.6008 87.4808 28.4273L87.4744 28.4209ZM86.1326 14.4836C86.9094 14.6313 87.5514 14.9012 88.0458 15.2996C88.5402 15.6916 88.9061 16.1992 89.1308 16.8097C89.3619 17.4201 89.4775 18.2619 89.4775 19.335H76.2583C76.2583 18.5253 76.3097 17.8378 76.4188 17.2595C76.5215 16.6876 76.6885 16.2378 76.9132 15.9229C77.1379 15.6081 77.4332 15.3317 77.7992 15.094C78.1651 14.8627 78.6081 14.6827 79.1281 14.5542C79.6482 14.4321 80.2517 14.3486 80.9451 14.3101C81.6384 14.2715 82.4281 14.2522 83.3077 14.2522C84.412 14.2522 85.3493 14.3229 86.1326 14.4707V14.4836ZM114.15 28.3759L114.163 19.5599C114.163 18.7502 114.131 18.0048 114.067 17.3237C114.003 16.6426 113.874 16.0193 113.675 15.4667C113.476 14.9141 113.2 14.4193 112.841 14.0016C112.481 13.5775 112.006 13.2241 111.415 12.9414C110.825 12.6587 110.106 12.4402 109.252 12.2924C108.404 12.1446 107.39 12.0739 106.215 12.0739C105.81 12.0739 105.361 12.0868 104.873 12.1125C104.385 12.1382 103.878 12.196 103.352 12.2731C102.832 12.3502 102.305 12.4595 101.785 12.6008C101.265 12.7422 100.777 12.9285 100.328 13.1599C99.8782 13.3912 99.4738 13.6675 99.1142 13.9952C98.7547 14.3229 98.4786 14.7085 98.286 15.1583V12.5109H95.6409V28.3823H98.286V18.6795C98.286 18.0177 98.3823 17.4137 98.5814 16.8739C98.7804 16.3342 99.1399 15.8651 99.6599 15.4795C100.18 15.094 100.899 14.7984 101.817 14.5864C102.729 14.3743 103.904 14.2715 105.335 14.2715C106.658 14.2715 107.724 14.3615 108.526 14.5478C109.335 14.7342 109.958 15.0297 110.401 15.441C110.844 15.8522 111.133 16.3984 111.281 17.0731C111.428 17.7478 111.499 18.5767 111.499 19.5599V28.3759H114.144H114.15ZM118.567 28.3759H121.213V12.5044H118.567V28.3759ZM121.213 7.20966H118.567V9.85705H121.213V7.20966ZM125.636 12.498L125.623 21.3141C125.623 22.1109 125.655 22.8498 125.72 23.5181C125.784 24.1864 125.912 24.7968 126.105 25.343C126.297 25.8892 126.573 26.3711 126.933 26.7823C127.292 27.1936 127.768 27.5406 128.358 27.8233C128.949 28.106 129.668 28.3117 130.515 28.4595C131.363 28.6008 132.377 28.6715 133.565 28.6715C134.99 28.6715 136.178 28.5687 137.141 28.3566C138.104 28.1446 138.887 27.8876 139.491 27.5791C140.094 27.2707 140.55 26.9366 140.858 26.5767C141.16 26.2169 141.378 25.8892 141.507 25.5936V28.3695H144.152V12.498H141.507V22.1044C141.507 22.7599 141.41 23.3574 141.211 23.8908C141.012 24.4305 140.653 24.8868 140.126 25.2659C139.6 25.645 138.881 25.9406 137.969 26.1526C137.058 26.3647 135.883 26.4675 134.451 26.4675C133.128 26.4675 132.063 26.3775 131.254 26.1976C130.445 26.0177 129.822 25.7221 129.379 25.3109C128.936 24.8996 128.647 24.3599 128.499 23.6916C128.352 23.0233 128.281 22.2008 128.281 21.2305V12.498H125.649H125.636Z" fill="#7E7E7E"></path>
    <path d="M68.3358 21.3205C68.3358 22.1173 68.3037 22.792 68.2395 23.3381C68.1753 23.8843 68.0726 24.3341 67.9313 24.694C67.7901 25.0538 67.6039 25.3301 67.3728 25.5293C67.1416 25.7285 66.8656 25.8763 66.5381 25.9727C66.2107 26.0691 65.8319 26.1269 65.3953 26.1462C64.9588 26.1655 64.4644 26.1719 63.9123 26.1719C63.2125 26.1719 62.6282 26.1526 62.1403 26.114C61.6524 26.0755 61.2736 25.947 60.9782 25.7285C60.6829 25.51 60.4711 25.163 60.3362 24.6811C60.2014 24.2056 60.1372 23.5245 60.1372 22.6442V14.702H70.0885V12.498H60.1372V8.18634H57.4921V12.498H54.2306V14.702H57.4921V22.6506C57.4921 23.7494 57.6012 24.6683 57.8195 25.4008C58.0378 26.1333 58.4037 26.7181 58.9045 27.1614C59.4117 27.5984 60.073 27.9132 60.8884 28.0996C61.7037 28.2859 62.7117 28.3759 63.9187 28.3759C65.1257 28.3759 66.1979 28.2602 67.0453 28.0289C67.8928 27.7976 68.5733 27.412 69.087 26.8723C69.607 26.3325 69.9729 25.6064 70.1977 24.7004C70.4159 23.7944 70.5251 22.6699 70.5251 21.3205H68.323H68.3358Z" fill="#7E7E7E"></path>
    <path d="M49.82 12.498H47.1748V28.3695H49.82V12.498Z" fill="#7E7E7E"></path>
    <path d="M49.82 7.20966H47.1748V9.85705H49.82V7.20966Z" fill="#7E7E7E"></path>
    <path d="M11.4275 1.70281L9.04557 0C0.384719 10.1269 -2.02286 22.5221 3.35085 29.404L6.64441 26.3968C2.14385 20.6008 4.15338 10.2104 11.4275 1.70281Z" fill="#E78200"></path>
    <path d="M12.8589 38.2972L15.2408 40C23.9016 29.8731 26.3028 17.4779 20.9355 10.596L17.6419 13.6032C22.1425 19.3992 20.133 29.796 12.8589 38.3036V38.2972Z" fill="#E78200"></path>
  </g>
  <defs>
    <clipPath id="clip0_3535_81693">
      <rect width="178" height="40" fill="white" transform="translate(0.5)"></rect>
    </clipPath>
  </defs>
</svg>
